<svg width="79" height="40" viewBox="0 0 79 40" fill="none" xmlns="http://www.w3.org/2000/svg">
<path d="M77.7439 27.0485L70.1153 19.4663L77.7478 11.8338L78.4248 11.1568L77.7478 10.4799L72.6376 5.36961L71.9606 4.69263L71.2836 5.36961L63.6511 13.0021L56.0689 5.37348L55.3919 4.69263L54.7111 5.36961L49.6008 10.4799L48.9277 11.1568L49.5969 11.8338L57.1869 19.4663L49.6008 27.0524L48.9238 27.7294L49.6008 28.4063L54.7111 33.5166L55.388 34.1936L56.065 33.5166L63.6511 25.9305L71.2875 33.5204L71.9606 34.1936L72.6376 33.5166L77.7478 28.4063L78.4248 27.7255L77.7439 27.0485Z" fill="#1C1F2A"/>
<path d="M35.3848 4.24371V40H44.8703V0L35.3848 4.24371Z" fill="#1C1F2A"/>
<path d="M20.1199 25.7718C19.9574 28.8201 17.4352 31.2457 14.3443 31.2457C11.2534 31.2457 8.56093 28.6577 8.56093 25.4623C8.56093 22.267 11.1489 19.6789 14.3443 19.6789C17.5396 19.6789 19.9574 22.1045 20.1199 25.1528V25.7718ZM20.1199 11.0793V12.3327C18.352 11.5552 16.3984 11.118 14.3443 11.118C6.42166 11.1219 0 17.5397 0 25.4623C0 33.3849 6.42166 39.8066 14.3443 39.8066C16.3984 39.8066 18.352 39.3695 20.1199 38.5919V40H29.6054V11.0832H20.1199V11.0793Z" fill="#1C1F2A"/>
</svg>
