<?xml version="1.0" encoding="UTF-8"?><svg id="Layer_2" xmlns="http://www.w3.org/2000/svg" viewBox="0 0 758.32 276"><defs><style>.cls-1{letter-spacing:.01em;}.cls-2{letter-spacing:0em;}.cls-3,.cls-4{fill:#fff;}.cls-5{fill:#e09000;}.cls-4{font-family:MDNichromeTest-Regular, 'MD Nichrome Test';font-size:38.87px;}.cls-6{letter-spacing:0em;}.cls-7{letter-spacing:0em;}</style></defs><g id="Layer_1-2"><g><g><g><rect class="cls-5" x="703.47" y="74.95" width="29.15" height="13.15"/><polygon class="cls-5" points="723.34 193.26 723.34 140.76 703.47 149.76 703.47 94.1 732.62 94.1 732.62 111.9 758.32 96.96 723.34 193.26"/></g><g><path class="cls-3" d="M373.57,111.92c-8.87-8.87-19.71-13.36-32.23-13.36-6.26,0-12.1,1.12-17.48,3.35-5.38,2.23-10.31,5.58-14.74,10.01-8.86,8.86-13.36,19.71-13.36,32.22s4.49,23.37,13.36,32.23c8.87,8.87,19.71,13.36,32.23,13.36,8.63,0,16.69-2.29,23.95-6.79,7.25-4.5,12.85-10.58,16.65-18.08l2.18-4.31h-23.37l-.88,.95c-4.98,5.38-11.04,8-18.53,8-5.97,0-11.09-1.74-15.67-5.32-3.54-2.76-6.09-6.05-7.73-9.99h67.85l.44-2.45c.47-2.65,.71-5.22,.71-7.6,0-12.51-4.49-23.36-13.36-32.22Zm-47.96,12.12c4.63-3.62,9.77-5.38,15.74-5.38s11.11,1.76,15.74,5.38c3.57,2.79,6.12,6.11,7.72,10.06h-46.93c1.61-3.95,4.16-7.27,7.73-10.06Z"/><rect class="cls-3" x="392.49" y="129.28" width="56.57" height="20.24"/><path class="cls-3" d="M559.82,129.85v59.88h-20.1v-59.88c0-3.12-1.09-5.7-3.32-7.9-2.25-2.21-4.87-3.29-8.01-3.29s-5.72,1.07-7.92,3.27c-2.2,2.2-3.27,4.79-3.27,7.92v59.88h-20.1l-.14-59.88c0-3.13-1.09-5.71-3.32-7.91-2.25-2.21-4.83-3.29-7.87-3.29s-5.75,1.08-8,3.29c-2.23,2.2-3.32,4.79-3.32,7.9v59.88h-20.1v-59.88c0-8.62,3.11-16.07,9.23-22.15,6.11-6.07,13.58-9.14,22.19-9.14s15.47,2.79,21.35,8.3c5.75-5.51,12.89-8.3,21.27-8.3s16.08,3.07,22.2,9.14c6.12,6.08,9.23,13.53,9.23,22.15Z"/><path class="cls-3" d="M640.78,111.92c-8.87-8.87-19.71-13.36-32.23-13.36-6.26,0-12.1,1.12-17.48,3.35-5.38,2.23-10.31,5.58-14.74,10.01-8.86,8.86-13.36,19.71-13.36,32.22s4.5,23.37,13.36,32.23c8.87,8.87,19.71,13.36,32.23,13.36s23.36-4.49,32.23-13.36c8.87-8.87,13.36-19.71,13.36-32.23s-4.49-23.36-13.36-32.22Zm-32.23,57.58c-7.09,0-12.98-2.43-18.02-7.42-5.02-4.99-7.47-10.86-7.47-17.94s2.45-12.97,7.48-18.01c5.03-5.04,10.93-7.48,18.01-7.48s12.98,2.45,18.01,7.48c5.03,5.03,7.48,10.92,7.48,18.01s-2.44,12.95-7.47,17.94c-5.03,4.99-10.93,7.42-18.02,7.42Z"/><path class="cls-3" d="M702.51,169.63v20.1h-7.51c-8.62,0-16.09-3.1-22.21-9.22-6.12-6.11-9.22-13.59-9.22-22.21v-39.25h-10.55v-20.1h10.55v-24.05h20.24v24.05h11.09v20.1h-11.09v39.25c0,3.14,1.07,5.76,3.29,8.01,2.2,2.23,4.79,3.32,7.91,3.32h7.51Z"/><text class="cls-4" transform="translate(454.27 243.57)"><tspan class="cls-7" x="0" y="0">ele</tspan><tspan class="cls-1" x="48.55" y="0">c</tspan><tspan class="cls-7" x="64.56" y="0">t</tspan><tspan class="cls-2" x="76.57" y="0">r</tspan><tspan class="cls-7" x="88.19" y="0">ici</tspan><tspan x="117.92" y="0">t</tspan><tspan class="cls-6" x="129.74" y="0">y on the go</tspan></text></g></g><path class="cls-3" d="M247.84,52.62h-21.95v-11.74c0-16.84-13.63-30.49-30.48-30.49h-35.61c-.27-5.75-5.08-10.38-10.88-10.38h-42.36c-2.99,0-5.71,1.24-7.71,3.21-1.85,1.85-3.06,4.38-3.19,7.17H60.06c-16.86,0-30.52,13.66-30.52,30.49v11.74H7.62c-4.21,0-7.62,3.41-7.62,7.62v23.5c0,4.21,3.41,7.63,7.62,7.63h3.82c4.21,0,7.62-3.42,7.62-7.63v-21.13h10.49v4.88H201.75v4.44l-56.7,.04-10.9,.04h-1.04l-16.15,71.12-.02,.07-13.91,61.35h98.73v4.17H29.55v29.44c0,20.9,16.95,37.84,37.84,37.84h120.67c20.9,0,37.83-16.95,37.83-37.84V62.6h10.52v21.13c0,4.21,3.4,7.63,7.62,7.63h3.82c4.21,0,7.62-3.42,7.62-7.63v-23.5c0-4.21-3.41-7.62-7.62-7.62ZM64.58,246.4c-6.04,0-10.92-4.9-10.92-10.91s4.88-10.91,10.92-10.91,10.9,4.88,10.9,10.91-4.9,10.91-10.9,10.91Zm63.71,18.18c-15.37,0-29.38-12.28-29.38-25.77h6.72c0,8.81,9.89,19.04,22.65,19.04,10.17,0,21.53-8.15,21.53-19.04h6.72c0,13.73-13.2,25.77-28.26,25.77Zm62.05-18.18c-6.02,0-10.91-4.9-10.91-10.91s4.88-10.91,10.91-10.91,10.9,4.88,10.9,10.91-4.88,10.91-10.9,10.91Zm26.95-37.94v-1.55c.05,.25,.05,.5,.05,.77s0,.52-.05,.77Z"/><g><path class="cls-5" d="M102.07,204.67c4.32-17.85,8.65-35.7,13.1-54.08h-48.39c22.54-26.9,44.51-53.13,66.48-79.36,.33,.14,.66,.29,.99,.43-4.34,17.92-8.68,35.83-13.12,54.13h47.8c.12,.21,.25,.42,.37,.63-22.1,26.26-44.19,52.52-66.29,78.78-.31-.18-.62-.35-.93-.53h0Z"/><polygon class="cls-5" points="134.25 71.66 115.17 150.59 66.78 150.59 133.26 71.23 134.25 71.66 134.25 71.66"/></g></g></g></svg>