<svg xmlns="http://www.w3.org/2000/svg" xmlns:xlink="http://www.w3.org/1999/xlink" id="Layer_1" viewBox="0 0 644.24 165.74"><defs><style>      .st0 {        fill: none;      }      .st1 {        fill: url(#linear-gradient1);      }      .st2 {        fill: url(#linear-gradient);      }      .st3 {        fill: #0f1126;      }      .st4 {        clip-path: url(#clippath);      }    </style><linearGradient id="linear-gradient" x1="159.65" y1="786.41" x2="277.18" y2="668.87" gradientTransform="translate(0 -623.86)" gradientUnits="userSpaceOnUse"><stop offset="0" stop-color="#05f2d8"></stop><stop offset=".17" stop-color="#05eed6"></stop><stop offset=".31" stop-color="#08e4d1"></stop><stop offset=".45" stop-color="#0cd2ca"></stop><stop offset=".58" stop-color="#12b9bf"></stop><stop offset=".71" stop-color="#1a99b1"></stop><stop offset=".83" stop-color="#2371a0"></stop><stop offset=".95" stop-color="#2e438c"></stop><stop offset="1" stop-color="#342f83"></stop></linearGradient><clipPath id="clippath"><path class="st0" d="M272.93,102.95c-3.13.03-6.14.53-8.98,1.45-29.53,8.99-59.96,56.81-90.29,58.65l.62.05h92.72l7.99-.02c12.92.55,28.2-13.53,28.2-30.12s-13.44-30.03-30.02-30.03h-.26l.02.02h0Z"></path></clipPath><linearGradient id="linear-gradient1" x1="197.26" y1="828.48" x2="279.63" y2="685.79" gradientTransform="translate(605.2 -570.7) rotate(45)" gradientUnits="userSpaceOnUse"><stop offset="0" stop-color="#342f83"></stop><stop offset=".12" stop-color="#3a2f85"></stop><stop offset=".29" stop-color="#4c318b"></stop><stop offset=".48" stop-color="#693495"></stop><stop offset=".7" stop-color="#9338a3"></stop><stop offset=".93" stop-color="#c73eb5"></stop><stop offset="1" stop-color="#d840bb"></stop></linearGradient></defs><path class="st2" d="M201.43,11.73c-2.61,2.61-4.64,5.59-6.09,8.76l-49.1,98.2c-2.33,4.27-3.65,9.16-3.65,14.36,0,10.58,5.47,19.88,13.74,25.23.35.22.7.44,1.06.66,4.46,2.63,9.67,4.14,15.23,4.14h93.28c10.54-7.21,19.82-16.78,26.97-28.48,2.81-4.59,5.17-9.32,7.11-14.14-.28-.6-.57-1.18-.89-1.76l-49.11-98.23c-1.45-3.16-3.47-6.13-6.07-8.73-5.86-5.86-13.55-8.8-21.23-8.8s-15.37,2.93-21.23,8.8"></path><g class="st4"><rect class="st1" x="171.18" y="66.02" width="134.52" height="134.52" transform="translate(-24.41 207.64) rotate(-45)"></rect></g><polygon class="st3" points="435.25 0 435.25 94.52 347.37 0 333.39 0 333.39 164.67 367.07 164.67 367.07 69.93 455.17 164.67 468.93 164.67 468.93 0 435.25 0"></polygon><path class="st3" d="M64.76,66.65c-11.73-4.68-22.82-9.09-26.5-14.8-.62-1.3-1.44-3.79-1.47-4.47,0-13.05,11.66-15.78,21.44-15.78,12.37,0,24.27,5.09,33.52,14.34l2.46,2.46,20.96-23.35-2.2-2.2C98.85,8.73,78.7.3,59.08.3,33.91.3,14.26,12.29,7.78,31.6c-2.56,6.55-2.48,16.11-1.63,22.32l.02.14c4.3,23.96,28.65,34.02,50.13,42.89,16.49,6.81,30.73,12.7,30.73,22.76,0,11.63-15.32,14.74-24.38,14.74-16.51,0-28.6-4.99-35.93-14.82l-2.02-2.7L0,136.28l1.94,2.58c12.86,17.09,34.68,26.88,59.85,26.88,28.09,0,56.53-15.53,56.53-45.21,0-32.53-29.7-44.37-53.57-53.88"></path><path class="st3" d="M623.2,26.03c-15.3-16.81-37.11-25.81-63.07-26.03h-50.07v164.67h50.07c25.96-.22,47.77-9.22,63.07-26.03,13.57-14.91,21.04-34.9,21.04-56.3s-7.47-41.4-21.04-56.31M543.74,31.88h15.23c15.61,0,28.66,5.41,37.76,15.63,8.1,9.11,12.56,21.41,12.56,34.65,0,24.28-15.75,50.41-50.32,50.41h-15.23V31.87h0Z"></path></svg>